<svg xmlns="http://www.w3.org/2000/svg" width="167.647" height="172.794"><path fill-rule="evenodd" clip-rule="evenodd" fill="#FFF" d="M126.631 79.26l-33.13-33.367a4.022 4.022 0 0 0-2.905-1.19c-.138-.013-.262-.081-.405-.081-.591 0-1.141.137-1.644.363a3.953 3.953 0 0 0-1.407.902L54.379 78.59a4.035 4.035 0 0 0-.004 5.716 3.993 3.993 0 0 0 2.86 1.189 4.051 4.051 0 0 0 2.86-1.177L86.15 58.305v71.219a4.045 4.045 0 0 0 4.041 4.041 4.043 4.043 0 0 0 4.042-4.041v-71.42l26.665 26.859a4.03 4.03 0 0 0 2.861 1.188 4.017 4.017 0 0 0 2.852-1.177 4.035 4.035 0 0 0 .02-5.714m.455-42.724H53.38a4.045 4.045 0 0 1 0-8.087h73.707a4.042 4.042 0 0 1 4.037 4.046 4.04 4.04 0 0 1-4.038 4.041m0 0"/></svg>