<svg xmlns="http://www.w3.org/2000/svg" width="167.647" height="172.794"><g fill-rule="evenodd" clip-rule="evenodd" fill="#FFF"><path d="M49.409 129.433c-.147 0-.265-.034-.398-.048-.182.021-.31.03-.31.03l.708.018zm41.237-95.988c-28.169 0-51.479 19.819-51.479 44.583 0 9.583 3.413 19.165 10.961 27.442.101.098.222.139.327.223l-3.981 19.903h.062c-.091.638-.089 1.264.116 1.806.492 1.312 1.231 1.874 2.361 1.983.462-.051 1.347-.197 1.918-.604l10.961-5.518c5.452-2.033 10.97-3.413 15.76-2.033 4.064.727 8.204 1.38 12.995 1.38 28.169 0 51.478-19.899 51.478-44.582-.001-24.691-23.304-44.583-51.479-44.583zm.651 82.334c-4.136 0-7.549-.72-11.688-1.38-6.896-1.38-14.448-.653-20.618 2.759l-5.597 2.783c1.377-4.452 3.221-10.173 4.173-12.078 1.637-3.273-2.386-6.888-2.386-6.888-.007-.004-.039.018-.047.015-.081-.1-.119-.218-.213-.312-6.172-6.898-8.93-14.447-8.93-22.651 0-20.626 19.897-37.758 44.582-37.758 24.762 0 45.307 17.131 45.307 37.758-.001 20.619-19.891 37.752-44.583 37.752z"/><path d="M67.704 71.813a6.163 6.163 0 0 0-4.381 1.828c-1.108 1.112-1.829 2.743-1.829 4.382a6.3 6.3 0 0 0 1.829 4.38c1.112 1.176 2.749 1.767 4.381 1.767a6.393 6.393 0 0 0 4.382-1.767c1.11-1.181 1.831-2.748 1.831-4.38a6.188 6.188 0 0 0-1.831-4.382 6.198 6.198 0 0 0-4.382-1.828zm22.942 0a6.155 6.155 0 0 0-4.382 1.828c-1.176 1.112-1.831 2.743-1.831 4.382 0 1.567.65 3.206 1.831 4.38 1.176 1.176 2.743 1.767 4.382 1.767a6.405 6.405 0 0 0 4.381-1.767c1.108-1.181 1.829-2.748 1.829-4.38a6.19 6.19 0 0 0-1.829-4.382 6.206 6.206 0 0 0-4.381-1.828zm22.8 0a6.166 6.166 0 0 0-4.381 1.828c-1.043 1.112-1.764 2.743-1.764 4.382 0 1.567.654 3.206 1.764 4.38 1.178 1.176 2.748 1.767 4.381 1.767a6.401 6.401 0 0 0 4.383-1.767c1.107-1.181 1.83-2.748 1.83-4.38a6.187 6.187 0 0 0-1.83-4.382 6.2 6.2 0 0 0-4.383-1.828z"/></g></svg>