<svg xmlns="http://www.w3.org/2000/svg" width="595.279" height="236.083"><path d="M121.464 125.95c0-4.416-.694-5.279-3.13-6.574l-1.639-.869c-.52-.174-.687-.265-.687-.613v-.508c0-.349.167-.532.687-.779l8.566-4.424c.524-.255.868-.346 1.217-.346.526 0 .604.52.604 1.04l.438 6.149h.344c2.599-3.982 6.662-7.538 10.394-7.538 2.938 0 4.408 1.821 4.408 3.813 0 2.51-2.072 4.241-3.632 4.241-.951 0-1.815-.346-2.511-.688-.696-.427-1.74-.694-2.854-.694-1.387 0-3.635.866-5.117 3.637-.514.953-.87 2.513-.87 2.768v18.008c0 2.682.617 3.551 2.43 3.551h4.068c.516 0 .601.252.601.771v1.557c0 .519-.085.782-.428.782-.517 0-4.502-.265-9.173-.265-5.366 0-9.004.265-9.524.265-.343 0-.517-.172-.517-.862v-1.477c0-.602.174-.771.954-.771h3.38c1.297 0 1.896-.525 1.896-1.65.096-2.854.096-5.883.096-10.385v-8.139zm36.696 18.088c-3.975-4.752-4.765-7.959-4.765-14.106 0-4.413 2.338-9.952 7.448-13.934 4.497-3.465 8.746-4.16 11.599-4.16 4.759 0 9.523 2.431 12.124 5.025 3.895 3.988 5.886 8.479 5.886 14.107 0 9.435-8.486 19.044-19.136 19.044-4.155 0-9.521-1.642-13.156-5.976m25.019-13.938c0-9.605-7.012-15.659-11.423-15.659-2.337 0-4.595.511-6.668 2.768-3.372 3.461-4.595 7.012-4.595 13.588 0 4.847.529 8.135 3.295 12.119 1.992 2.854 4.504 4.502 8.569 4.502 6.578 0 10.822-8.05 10.822-17.318m24.581 17.404c-.429-.26-.429-.775-.516-1.209l-1.471-8.223c-.093-.439.178-.605.518-.697l1.133-.266c.336-.078.602.09.771.523l2.157 4.24c1.74 3.201 2.953 5.371 7.538 5.371 3.027 0 6.835-1.818 6.835-5.886 0-3.894-1.896-6.146-8.395-7.965-5.101-1.476-10.209-4.159-10.209-10.991 0-5.972 5.622-10.567 12.119-10.567 4.16 0 6.405 1.04 7.96 1.815 1.295.607 1.47 1.046 1.56 1.563l1.301 6.059c0 .347-.18.604-.603.774l-1.047.354c-.344.087-.521 0-.772-.437l-2.942-3.981c-1.047-1.647-2.688-3.381-6.065-3.381-3.284 0-6.662 1.996-6.662 5.72 0 5.016 4.062 5.98 8.305 7.184 6.326 1.814 10.305 4.412 10.39 11.082-.084 7.008-5.795 11.422-13.15 11.422-4.255.006-7.711-1.722-8.755-2.504m43.804-21.554c-.171.777-.261 2.16-.261 4.15 0 8.492 5.371 14.895 12.294 14.895 5.284 0 9.003-3.029 10.477-5.891.171-.344.518-.512.776-.434l1.13.615c.261.082.421.338 0 1.291-1.563 3.461-6.064 9.438-13.772 9.438-4.932 0-10.387-1.471-13.583-6.146-3.031-4.418-3.808-7.615-3.808-13.672 0-3.381.864-9.176 5.452-13.763 3.715-3.813 8.049-4.592 12.374-4.592 9.957 0 12.727 9.348 12.727 12.726 0 1.215-1.036 1.383-2.424 1.383h-21.382zm13.767-2.601c1.639 0 2.334-.425 2.334-1.211 0-1.984-1.04-7.697-6.663-7.697-3.802 0-7.442 2.506-9.089 8.908h13.418zm29.6 20.689c-3.981-4.752-4.761-7.959-4.761-14.106 0-4.413 2.341-9.952 7.448-13.934 4.498-3.465 8.739-4.16 11.602-4.16 4.755 0 9.516 2.431 12.119 5.025 3.896 3.988 5.889 8.479 5.889 14.107 0 9.435-8.492 19.044-19.138 19.044-4.155 0-9.522-1.642-13.159-5.976m25.017-13.938c0-9.605-7.015-15.659-11.432-15.659-2.325 0-4.583.511-6.661 2.768-3.372 3.461-4.583 7.012-4.583 13.588 0 4.847.517 8.135 3.287 12.119 1.989 2.854 4.502 4.502 8.573 4.502 6.579 0 10.816-8.05 10.816-17.318m57.314 14.206c0 1.38.768 1.817 1.906 1.817h2.765c.773 0 .948.254.948.772v1.38c0 .613-.175.959-.693.959-.604 0-3.291-.253-8.22-.253-4.415 0-7.184.253-7.786.253-.522 0-.696-.253-.696-.959v-1.38c0-.603.267-.772 1.124-.772h2.513c.948 0 1.644-.438 1.728-1.996.092-2.248.174-5.023.174-7.271v-11.434c0-3.453 0-5.959-2.51-7.784-2.076-1.56-4.149-1.56-6.32-1.56-1.375 0-4.411.61-7.006 3.383-1.74 1.906-1.996 4.236-1.996 5.879v17.918c0 2.34.256 2.865 2.079 2.865h2.164c.692 0 .865.252.865.864v1.476c0 .519-.173.771-.608.771-.604 0-2.936-.253-7.529-.253-4.414 0-7.182.253-7.703.253-.435 0-.602-.253-.602-.771v-1.567c0-.521.167-.772.864-.772h2.507c1.133 0 1.727-.268 1.727-1.74v-20.248c0-2.602-1.38-4.069-3.548-5.108l-.686-.346c-.603-.253-.697-.52-.697-.779v-.436c0-.43.354-.691.778-.866l7.447-4.154c.688-.348 1.207-.61 1.557-.61.43 0 .601.346.693 1.04l.606 5.284h.172c2.511-3.117 7.539-6.324 11.856-6.324 2.596 0 5.281.52 7.358 1.906 2.6 1.728 4.769 6.061 4.769 8.225v22.338zm30.467-21.128c0 4.505 0 17.574.093 20.257.08 1.474.429 2.688 2.245 2.688h3.897c.774 0 .944.254.944.772v1.476c0 .519-.17.863-.515.863-.609 0-4.419-.266-9.782-.266-5.547 0-9.004.266-9.777.266-.44 0-.612-.346-.612-.863v-1.476c0-.603.172-.772 1.133-.772h4.151c.95 0 1.812-.615 1.901-2.17.088-2.684.088-17.57.088-22.586v-5.455c0-6.149-.088-14.027-.266-16.275-.162-2.945-1.553-4.325-4.322-5.199l-1.737-.602c-.43-.177-.509-.255-.509-.43v-.696c0-.264.254-.427.775-.598 3.023-1.395 6.931-2.957 10.127-5.028.777-.523 1.299-.694 1.812-.694.604 0 .777.441.692 1.562-.088 4.758-.342 22.758-.342 27.519v7.707h.004zm17.223 44.928c0-1.82 1.91-3.378 3.983-3.378 1.642 0 3.198.784 3.979.959.607.081 1.306 0 1.821-.522 1.296-1.562 5.714-11.434 6.928-14.806-.438-2.164-9.613-29.259-10.306-31.077-1.04-2.161-1.814-3.634-4.065-3.634h-2.258c-.601 0-.686-.252-.686-.778v-1.726c0-.352.085-.613.686-.613.784 0 2.86.261 7.967.261 4.411 0 7.101-.261 8.055-.261.691 0 .777.261.777.613v1.807c0 .445-.085.697-.52.697h-1.64c-.956 0-1.299.61-1.137 1.903.265 1.911 6.152 21.042 7.11 22.944h.337c.868-1.392 8.397-19.395 8.918-21.556.515-2.164-.172-3.291-1.469-3.291h-1.387c-.526 0-.607-.252-.607-.697v-1.725c0-.433.081-.694.521-.694 1.119 0 2.94.261 7.102.261 2.327 0 4.328-.261 5.281-.261.511 0 .511.346.511.694v1.644c0 .526 0 .778-.427.778h-1.387c-.956 0-2.161.438-3.029 1.56-1.903 2.335-7.624 15.58-13.599 29.167-4.239 9.604-7.612 17.651-9.174 20.517-1.21 2.248-2.77 5.626-7.348 5.626-3.293.001-4.937-1.82-4.937-4.412m45.012-23.199c0-1.473 1.043-4.854 5.37-4.854 2.517 0 4.848 2.002 4.848 5.203 0 2.852-2.165 4.758-4.848 4.758-1.903 0-5.37-1.032-5.37-5.107" fill="#FFF"/></svg>