<svg xmlns="http://www.w3.org/2000/svg" width="595.28" height="411.029"><path fill="#8D8D8D" d="M360.557 239.416c-.356-2.296-2.981-7.499-9.278-15.228-2.516-3.08-5.16-5.989-7.448-8.192-2.284-2.199-4.093-3.617-5.375-4.216l-.513-.236-1.634-.104-.551.18c-.86.282-1.766.873-2.765 1.806-1.129 1.052-2.308 2.485-3.156 3.516l-.109.133c-1.098 1.314-2.133 2.558-3.134 3.402-.945.801-1.775 1.167-2.467 1.091a1.992 1.992 0 0 1-.357-.078c-2.586-.814-6.676-5.428-8.883-8.105-3.527-4.277-7.163-9.534-9.689-13.994a73.403 73.403 0 0 0-1.802-3.202c-.813-1.372-1.033-1.74-2.145-5.159-1.073-3.297-2.766-9.223-2.093-11.776.114-.387.379-1.291 2.426-1.922 1.255-.389 2.923-.601 4.534-.806l.093-.012c1.531-.19 3.268-.407 4.72-.787 1.554-.398 3.542-1.269 4.179-3.133.748-2.152.445-3.344.027-4.993-.15-.589-.344-1.345-.555-2.396-.633-3.12-1.671-6.916-2.925-10.686-3.141-9.464-6.124-14.471-7.87-16l-.42-.367-1.505-.553-.561.011c-.767.014-2.463.227-5.224 1.497-2.441 1.123-5.211 2.831-7.801 4.81-6.139 4.693-10.429 10.031-11.768 14.639-1.458 4.981-.713 13.342 2.099 23.544 2.773 10.062 4.618 13.797 9.945 23.806l1.991 3.638c5.793 10.231 12.797 20.082 19.725 27.738 7.087 7.838 13.743 12.954 18.738 14.409.815.237 1.713.412 2.667.519 4.414.494 10.1-.428 16.007-2.599 3.091-1.136 6.02-2.561 8.239-4 2.609-1.678 3.687-3.006 4.098-3.648l.287-.451.337-1.539-.084-.557z"/></svg>