<svg xmlns="http://www.w3.org/2000/svg" width="128" height="35"><path fill="#414041" d="M0 0h128v35H0z"/><path d="M22.8 16.251c0-1.046-.165-1.251-.741-1.558l-.389-.206c-.122-.041-.163-.063-.163-.145v-.121c0-.083.041-.126.163-.185l2.03-1.048a.634.634 0 0 1 .29-.082c.123 0 .142.122.142.247l.105 1.458h.081c.616-.944 1.58-1.787 2.464-1.787.697 0 1.044.432 1.044.903 0 .595-.492 1.005-.861 1.005-.226 0-.429-.081-.594-.162-.165-.102-.413-.165-.676-.165-.33 0-.862.205-1.213.862a2.285 2.285 0 0 0-.206.656v4.269c0 .635.146.842.576.842h.964c.123 0 .143.059.143.184v.368c0 .122-.02.186-.101.186-.125 0-1.068-.063-2.176-.063-1.272 0-2.133.063-2.257.063-.082 0-.123-.041-.123-.206v-.348c0-.144.042-.184.226-.184h.802c.307 0 .45-.124.45-.392.022-.678.022-1.395.022-2.461v-1.93zm8.698 4.288c-.941-1.126-1.128-1.887-1.128-3.344 0-1.046.554-2.358 1.764-3.303 1.066-.822 2.073-.986 2.75-.986 1.128 0 2.257.576 2.874 1.19.923.946 1.396 2.011 1.396 3.344 0 2.236-2.012 4.515-4.535 4.515-.987.001-2.26-.39-3.121-1.416m5.929-3.304c0-2.277-1.661-3.712-2.707-3.712-.554 0-1.089.123-1.581.657-.798.82-1.087 1.661-1.087 3.22 0 1.148.124 1.93.78 2.873.473.677 1.067 1.067 2.031 1.067 1.56.001 2.564-1.908 2.564-4.105m5.827 4.126c-.102-.062-.102-.186-.122-.287l-.349-1.949c-.021-.104.042-.144.123-.165l.268-.063c.08-.019.143.022.184.124l.511 1.005c.412.761.7 1.273 1.787 1.273.717 0 1.62-.431 1.62-1.395 0-.923-.45-1.457-1.99-1.888-1.209-.35-2.42-.986-2.42-2.606 0-1.414 1.333-2.504 2.873-2.504.986 0 1.519.247 1.887.431.307.143.349.247.37.37l.308 1.437c0 .082-.042.144-.143.184l-.249.083c-.08.021-.122 0-.183-.102l-.697-.944c-.248-.39-.636-.801-1.438-.801-.778 0-1.579.472-1.579 1.355 0 1.189.962 1.417 1.968 1.703 1.499.431 2.442 1.045 2.463 2.627-.021 1.662-1.374 2.708-3.118 2.708-1.006-.001-1.826-.41-2.074-.596m10.384-5.11c-.042.185-.062.512-.062.984 0 2.013 1.272 3.532 2.914 3.532 1.252 0 2.134-.721 2.483-1.397.041-.081.124-.122.185-.103l.268.146c.061.019.1.079 0 .306-.372.82-1.438 2.237-3.265 2.237-1.168 0-2.462-.349-3.22-1.457-.718-1.047-.903-1.806-.903-3.242 0-.801.206-2.174 1.293-3.261.881-.904 1.908-1.088 2.934-1.088 2.359 0 3.016 2.214 3.016 3.015 0 .288-.245.328-.574.328h-5.069zm3.262-.616c.389 0 .553-.101.553-.287 0-.471-.245-1.825-1.579-1.825-.902 0-1.765.594-2.154 2.112h3.18zm7.017 4.904c-.944-1.126-1.128-1.887-1.128-3.344 0-1.046.555-2.358 1.764-3.303 1.067-.822 2.072-.986 2.751-.986 1.128 0 2.255.576 2.873 1.19.924.946 1.396 2.011 1.396 3.344 0 2.236-2.014 4.515-4.536 4.515-.986.001-2.258-.39-3.12-1.416m5.931-3.304c0-2.277-1.664-3.712-2.71-3.712-.552 0-1.087.123-1.579.657-.799.82-1.086 1.661-1.086 3.22 0 1.148.123 1.93.778 2.873.473.677 1.065 1.067 2.033 1.067 1.559.001 2.564-1.908 2.564-4.105m13.584 3.368c0 .327.183.432.451.432h.657c.183 0 .224.059.224.184v.327c0 .145-.041.227-.164.227-.143 0-.779-.061-1.948-.061-1.047 0-1.703.061-1.847.061-.123 0-.163-.061-.163-.227v-.327c0-.144.062-.184.265-.184h.598c.224 0 .388-.104.409-.474.021-.533.04-1.19.04-1.723v-2.71c0-.819 0-1.415-.595-1.846-.492-.37-.984-.37-1.498-.37-.327 0-1.046.145-1.661.801-.411.453-.473 1.005-.473 1.395v4.248c0 .555.062.679.492.679h.513c.165 0 .206.059.206.205v.349c0 .123-.041.184-.145.184-.144 0-.695-.061-1.785-.061-1.045 0-1.702.061-1.826.061-.102 0-.143-.061-.143-.184v-.37c0-.125.041-.184.205-.184h.595c.269 0 .409-.064.409-.413v-4.8c0-.616-.327-.963-.841-1.21l-.163-.083c-.143-.06-.164-.123-.164-.184v-.104c0-.102.084-.164.184-.206l1.765-.984c.164-.083.286-.145.37-.145.102 0 .143.082.164.247l.144 1.252h.041c.595-.739 1.786-1.499 2.811-1.499.616 0 1.252.122 1.743.452.615.41 1.131 1.437 1.131 1.95v5.295zm7.222-5.008c0 1.068 0 4.167.021 4.802.02.349.103.638.533.638h.924c.184 0 .224.059.224.184v.348c0 .124-.04.206-.121.206-.145 0-1.048-.063-2.319-.063-1.314 0-2.135.063-2.318.063-.103 0-.145-.082-.145-.206v-.348c0-.144.042-.184.268-.184h.984c.226 0 .43-.146.452-.515.021-.636.021-4.165.021-5.354v-1.294c0-1.457-.021-3.324-.064-3.856-.038-.698-.367-1.026-1.022-1.232l-.415-.144c-.102-.042-.121-.061-.121-.103v-.164c0-.062.06-.101.185-.143.717-.329 1.643-.699 2.399-1.19.185-.125.309-.165.431-.165.144 0 .185.104.165.37a675.357 675.357 0 0 0-.081 6.524v1.826zm4.082 10.649c0-.431.453-.801.944-.801.39 0 .758.187.941.227.146.02.311 0 .434-.122.308-.37 1.354-2.711 1.642-3.51-.103-.514-2.278-6.936-2.443-7.367-.245-.512-.431-.862-.963-.862h-.535c-.142 0-.163-.06-.163-.184v-.409c0-.083.021-.146.163-.146.186 0 .677.063 1.889.063 1.046 0 1.682-.063 1.907-.063.165 0 .186.063.186.146v.429c0 .104-.021.164-.122.164h-.39c-.227 0-.308.145-.27.451.063.453 1.458 4.988 1.686 5.439h.082c.205-.329 1.989-4.597 2.112-5.109.122-.513-.041-.781-.349-.781h-.328c-.125 0-.144-.06-.144-.164v-.41c0-.102.019-.165.123-.165.266 0 .697.063 1.683.063.552 0 1.025-.063 1.253-.063.12 0 .12.083.12.165v.39c0 .124 0 .184-.101.184h-.329a.927.927 0 0 0-.719.37c-.449.553-1.807 3.693-3.222 6.913-1.006 2.276-1.805 4.186-2.174 4.863-.287.534-.658 1.334-1.743 1.334-.779.001-1.17-.431-1.17-1.045m10.669-5.499c0-.349.248-1.15 1.272-1.15.596 0 1.149.474 1.149 1.232 0 .677-.513 1.129-1.149 1.129-.45 0-1.272-.245-1.272-1.211" fill="#FFF"/></svg>