<svg xmlns="http://www.w3.org/2000/svg" width="167.646" height="172.793"><path fill-rule="evenodd" clip-rule="evenodd" fill="#FFF" d="M36.763 91.118v-8.546h-8.545v8.546h8.545zm34.29-62.721h-45.73V74h45.715V28.397h.015zM65.39 68.323H31.099V34.145h34.304v34.178h-.013zm-8.573-25.69H39.615v17.37h17.216v-17.37h-.014zm51.395 59.994h-8.548v8.516h25.676v-8.516h-8.514V94h-8.614v8.627zM88.255 54.129h-8.616v8.516h8.616v-8.516zm-48.64 77.25h17.216v-17.37H39.615v17.37zm48.597-34.472h8.615v-8.474h8.571v-8.699h-8.614v8.556h-8.572v8.617zm37.185-11.468h-8.613v8.515h8.613v-8.515zM88.255 31.166h-8.616v17.173h8.616V31.166zm28.571 94.284v-8.517h-8.614v8.517h8.614zm-91.503 19.968h45.715V99.816H25.323v45.602zm5.763-39.842H65.39v34.181H31.086v-34.181zm99.989 5.511h8.615v-8.518h-8.615v8.518zm0-19.985h8.615v-8.347h-8.615v8.347zM96.812 28.397V74h45.717V28.397H96.812zm39.968 39.926h-34.304V34.145h34.304v34.178zm-8.53-25.69h-17.216v17.37h17.216v-17.37zm2.825 91.332h-5.679v-8.475h-8.613v8.475h-8.587v8.699h31.48v-8.39h.014v-17.427h-8.615v17.118zm-42.82-65.6H79.61v8.516h8.645v-8.516zm-42.89 22.85h28.612v-8.644H45.365v8.644zm42.89 25.577h8.572v-8.334h-8.572V96.921h-8.616v45.546h8.573v.114h8.615v-8.516h-8.572v-17.273zm8.529 17.132h8.614v-8.519h-8.614v8.519z"/></svg>