<svg xmlns="http://www.w3.org/2000/svg" width="107" height="40"><g fill="#8E8E8E"><path d="M44.758 20.645c0-.608-.097-.729-.431-.907l-.225-.12c-.073-.025-.096-.037-.096-.083v-.07c0-.048.023-.072.096-.107l1.178-.607a.352.352 0 0 1 .167-.048c.073 0 .083.071.083.144l.06.821h.049c.356-.548.917-1.037 1.429-1.037.406 0 .608.25.608.524 0 .346-.287.584-.5.584a.782.782 0 0 1-.346-.096.751.751 0 0 0-.393-.095c-.191 0-.501.119-.704.501-.071.131-.12.345-.12.381v2.5c0 .37.084.49.334.49h.56c.072 0 .083.035.083.105v.217c0 .07-.012.105-.06.105-.071 0-.62-.035-1.262-.035-.738 0-1.241.035-1.312.035-.048 0-.072-.022-.072-.119v-.203c0-.086.024-.105.131-.105h.464c.179 0 .263-.07.263-.227.013-.395.013-.812.013-1.433v-1.118h.003v.003zm5.052 2.488c-.547-.656-.655-1.096-.655-1.941 0-.605.321-1.371 1.024-1.917.621-.477 1.204-.572 1.597-.572.655 0 1.31.334 1.669.692.536.548.81 1.167.81 1.941 0 1.3-1.168 2.621-2.633 2.621-.572-.002-1.311-.228-1.812-.824m3.444-1.919c0-1.32-.966-2.155-1.575-2.155-.321 0-.63.073-.916.381-.465.476-.633.966-.633 1.871 0 .668.071 1.121.454 1.67.273.393.619.617 1.18.617.906 0 1.49-1.108 1.49-2.384m3.385 2.393c-.059-.034-.059-.104-.072-.168l-.199-1.129c-.014-.062.021-.082.07-.097l.152-.034c.049-.014.084.012.107.068l.297.586c.238.438.404.736 1.039.736.416 0 .939-.247.939-.811 0-.535-.264-.846-1.154-1.096-.703-.203-1.408-.57-1.408-1.514 0-.823.775-1.454 1.668-1.454.572 0 .881.144 1.098.25.178.083.203.143.215.213l.178.834c0 .048-.021.083-.084.107l-.143.048c-.049.011-.07 0-.107-.061l-.402-.548c-.145-.227-.369-.465-.834-.465-.453 0-.918.274-.918.786 0 .691.561.822 1.145.99.869.25 1.418.607 1.43 1.525-.012.964-.799 1.572-1.812 1.572-.584.01-1.063-.228-1.205-.338m6.029-2.962a3.122 3.122 0 0 0-.035.569c0 1.169.738 2.05 1.691 2.05.727 0 1.24-.416 1.443-.809.021-.051.068-.071.104-.061l.154.082c.033.014.061.049 0 .181-.215.476-.834 1.298-1.896 1.298-.68 0-1.43-.202-1.868-.846-.418-.605-.525-1.049-.525-1.883 0-.463.121-1.265.752-1.896.511-.523 1.107-.631 1.705-.631 1.369 0 1.75 1.288 1.75 1.752 0 .165-.144.188-.334.188h-2.942l.001.006zm1.896-.358c.225 0 .318-.06.318-.167 0-.273-.143-1.061-.918-1.061-.521 0-1.023.347-1.25 1.228h1.85zm4.075 2.846c-.549-.656-.656-1.096-.656-1.941 0-.605.322-1.371 1.025-1.917.621-.477 1.203-.572 1.598-.572.656 0 1.312.334 1.668.692.535.548.812 1.167.812 1.941 0 1.3-1.168 2.621-2.637 2.621-.572-.002-1.308-.228-1.81-.824m3.445-1.919c0-1.32-.967-2.155-1.574-2.155-.32 0-.633.073-.92.381-.465.476-.631.966-.631 1.871 0 .668.07 1.121.453 1.67.273.393.619.617 1.18.617.908 0 1.492-1.108 1.492-2.384m7.891 1.955c0 .19.104.251.26.251h.383c.105 0 .131.035.131.105v.189c0 .082-.021.133-.098.133-.082 0-.449-.035-1.129-.035-.607 0-.992.035-1.072.035-.07 0-.096-.035-.096-.133v-.189c0-.086.035-.105.154-.105h.344c.131 0 .229-.061.238-.275.012-.308.023-.688.023-1v-1.57c0-.478 0-.824-.346-1.073-.285-.215-.572-.215-.869-.215-.191 0-.609.083-.965.464-.238.263-.273.583-.273.812v2.465c0 .322.035.395.283.395h.301c.094 0 .119.035.119.12v.202c0 .07-.025.105-.084.105-.084 0-.404-.035-1.037-.035-.605 0-.988.035-1.061.035-.062 0-.082-.035-.082-.105v-.217c0-.07.021-.105.117-.105h.348c.152 0 .236-.037.236-.238v-2.789c0-.358-.191-.562-.486-.702l-.098-.049c-.084-.035-.098-.071-.098-.107v-.06c0-.061.049-.095.107-.119l1.023-.573c.096-.047.168-.083.215-.083.059 0 .084.048.096.144l.082.727h.023c.346-.428 1.037-.871 1.633-.871.357 0 .729.071 1.014.264.355.238.656.833.656 1.131v3.073l.008-.002zm4.193-2.907c0 .619 0 2.417.01 2.788.014.202.062.37.309.37h.539c.107 0 .129.035.129.105v.203c0 .068-.02.119-.068.119-.084 0-.605-.035-1.346-.035-.764 0-1.24.035-1.35.035-.059 0-.082-.051-.082-.119v-.203c0-.086.023-.105.154-.105h.57c.133 0 .252-.085.264-.298.014-.372.014-2.418.014-3.11v-.751c0-.846-.014-1.929-.037-2.24-.021-.405-.213-.597-.596-.715l-.236-.083c-.061-.024-.07-.036-.07-.06v-.096c0-.037.037-.06.104-.083.422-.19.957-.406 1.396-.692.105-.071.178-.094.25-.094.084 0 .107.06.096.214-.012.656-.047 3.134-.047 3.79v1.061l-.003-.001zm2.371 6.181c0-.248.262-.461.547-.461.227 0 .441.104.549.129a.29.29 0 0 0 .252-.07c.18-.216.785-1.575.953-2.038-.061-.297-1.324-4.014-1.42-4.265-.141-.298-.25-.5-.559-.5h-.311c-.082 0-.094-.036-.094-.107v-.239c0-.047.012-.083.094-.083.107 0 .396.037 1.099.037.606 0 .978-.037 1.104-.037.101 0 .108.037.108.083v.251c0 .059-.012.095-.071.095h-.226c-.131 0-.179.083-.153.262.032.262.846 2.883.978 3.145h.049c.117-.188 1.153-2.657 1.228-2.953.071-.298-.022-.453-.203-.453h-.193c-.066 0-.082-.037-.082-.095v-.24c0-.059.016-.096.072-.096.154 0 .404.037.975.037.32 0 .598-.037.729-.037.07 0 .07.048.07.096v.227c0 .071 0 .107-.06.107h-.19c-.132 0-.3.059-.416.213-.265.322-1.05 2.131-1.873 4.003-.582 1.323-1.05 2.43-1.263 2.823-.166.312-.383.772-1.015.772-.451.004-.678-.244-.678-.606m-59.363-6.947c-.452 0-.798.417-1.334 1.383-.406.713-.596 1.439-.596 1.928 0 .239.144.524.417.524.357 0 .738-.25 1.227-1.181.37-.688.728-1.701.728-2.144-.001-.284-.121-.51-.442-.51m12.136.321c0-.191-.047-.405-.322-.405-.453 0-.965 1.083-1.145 1.855.203.015.74-.143 1.085-.475.192-.177.382-.582.382-.975"/><path d="M42.636 9.516c-4.845-7.555-17.137-3.208-13.946 6.327-7.751-7.968-19.173 4.049-9.957 11.269 6.475 3.899 14.459 2.443 20.919 6.552-.841-7.262 7.198-17.58 2.984-24.148M24.213 16.04l-2.383 6.685c-.12.334-.107.512.12.512.286 0 .703-.43.858-.582.037-.035.072-.035.107 0l.131.143c.024.035.036.073 0 .133-.047.081-.964 1.096-2.227 1.096-.25 0-.513-.295-.513-.5 0-.2.215-.774.334-1.106l1.871-5.41c.155-.453.119-.751-.226-.751h-.346c-.083 0-.107-.048-.096-.108l.072-.238c.024-.072.048-.083.119-.083h2.098c.105-.006.141.065.081.209m3.369 7.291c-.464.502-.989.69-1.751.69-.692 0-1.573-.477-1.573-1.821 0-.966.273-1.965.941-2.691.489-.514 1.061-.693 1.704-.693s1.68.298 1.68 1.752c-.001.702-.251 1.966-1.001 2.763m7.066-1.06c-.584.953-1.502 1.752-2.622 1.752-.405 0-.632-.166-.87-.383-.179-.168-.286-.523-.286-.986 0-.432.106-.896.297-1.324.335-.762.978-1.429 1.288-1.788l-.072-.083c-.262.263-.714.382-1.156.382h-.583c-.489 0-.644.142-.656.346.012.154.274.286.381.346.083.048.262.226.262.535 0 .312-.142.488-.524.488-.321 0-.644-.31-.644-.929 0-.49.298-.989.465-1.18.237-.263.5-.573 1.357-.573 1.454 0 1.597-.059 1.729-.059.155 0 .273.071.166.239-.656 1.036-.989 1.477-.989 2.894 0 .785.323 1.167.62 1.167.512 0 .81-.201 1-.476.489-.703.597-1.205.597-2.049.035-.417-.048-.609-.18-.727a.837.837 0 0 1-.166-.441c0-.167.226-.607.798-.607.452 0 .643.5.643 1.012.002.788-.141 1.288-.855 2.444m1.578.417a4.09 4.09 0 0 1 1.442-3.038c.583-.501 1.288-.834 1.99-.834.656 0 .929.369.929.822 0 .667-.393 1.156-1.084 1.547a4.244 4.244 0 0 1-1.751.523c-.048.104-.095.416-.095.75 0 .418.238.773.643.773.583 0 1.012-.32 1.287-.617.024-.037.059-.062.096-.037l.189.132c.048.035.048.069.025.118-.215.43-1.109 1.191-2.277 1.191-.81.003-1.394-.484-1.394-1.33"/></g></svg>