<svg xmlns="http://www.w3.org/2000/svg" width="13" height="15"><path fill="#FFF" d="M12.922 13.828l-.003-.02c-.302-2.271-1.783-4.234-3.866-5.129l-.469-.2.422-.287a4.488 4.488 0 0 0 1.965-3.704C10.962 2.014 8.954 0 6.494 0 4.029 0 2.023 2.013 2.023 4.488c0 1.481.731 2.867 1.958 3.704l.421.287-.468.203a6.532 6.532 0 0 0-3.867 5.062l-.002.014c0 .001-.046.201-.064.298a.533.533 0 0 0 .427.523l.011.015h11.935c.087 0 .5-.04.562-.501-.006-.104-.011-.238-.014-.265zM2.818 4.488A3.68 3.68 0 0 1 6.491.807c2.03 0 3.68 1.651 3.68 3.681a3.686 3.686 0 0 1-3.417 3.67l-.031.002-.01-.003c-.036 0-.07-.001-.105-.003a1.948 1.948 0 0 0-.215.002h-.02a2.095 2.095 0 0 1-.112.004h-.02a3.69 3.69 0 0 1-3.423-3.672zM.879 13.791l.067-.262C1.512 10.96 3.724 9.1 6.327 9.011c.01 0 .021-.005.031-.007.018-.003.035-.007.052-.008a1.44 1.44 0 0 1 .295.006c2.604.09 4.816 1.956 5.388 4.523l.07.266H.879z"/></svg>