<svg xmlns="http://www.w3.org/2000/svg" width="12" height="16"><path fill="#FFF" d="M2.39 6.49a.479.479 0 1 1 .957.001.479.479 0 0 1-.957-.001zm9.244 9.115a.393.393 0 0 1-.398.385H.398a.408.408 0 0 1-.292-.122.385.385 0 0 1-.106-.284L.012 4.915a.393.393 0 0 1 .398-.362h1.991v-1.23C2.401 1.491 3.934 0 5.816 0S9.23 1.491 9.23 3.323v1.23h1.991c.211 0 .387.159.398.362l.015 10.69zM3.199 4.553h5.235v-1.23c0-1.409-1.175-2.555-2.617-2.555-1.443 0-2.618 1.146-2.618 2.555v1.23zm7.647.768H.787l-.008 9.901h10.066V5.321zM8.801 6.968a.478.478 0 1 0 0-.956.478.478 0 0 0 0 .956z"/></svg>