<svg xmlns="http://www.w3.org/2000/svg" width="107" height="40"><path d="M23.669 16.461c0-.761-.121-.912-.538-1.135l-.286-.15c-.088-.03-.118-.044-.118-.105v-.089c0-.059.03-.089.118-.134l1.48-.762a.46.46 0 0 1 .209-.06c.089 0 .105.09.105.179l.074 1.062h.058c.447-.688 1.15-1.3 1.793-1.3.508 0 .762.314.762.659 0 .432-.358.731-.627.731a.996.996 0 0 1-.434-.119.95.95 0 0 0-.494-.119c-.238 0-.627.15-.882.627a1.622 1.622 0 0 0-.149.478v3.108c0 .462.104.612.42.612h.701c.089 0 .104.044.104.134v.269c0 .09-.015.135-.074.135-.089 0-.777-.045-1.583-.045-.926 0-1.554.045-1.646.045-.058 0-.09-.031-.09-.148v-.255c0-.104.032-.134.166-.134h.583c.221 0 .328-.09.328-.284.015-.493.015-1.016.015-1.793l.005-1.407zm6.335 3.124c-.689-.823-.823-1.375-.823-2.436 0-.762.404-1.718 1.285-2.406.777-.598 1.509-.718 2.002-.718.821 0 1.644.419 2.092.866.671.69 1.016 1.465 1.016 2.437 0 1.629-1.464 3.288-3.303 3.288-.714.001-1.641-.283-2.269-1.031m4.317-2.406c0-1.658-1.209-2.704-1.972-2.704-.404 0-.791.089-1.149.477-.584.598-.792 1.21-.792 2.347 0 .836.091 1.404.568 2.091.343.494.777.778 1.478.778 1.136 0 1.867-1.389 1.867-2.989m4.244 3.003c-.074-.045-.074-.134-.088-.208l-.253-1.42c-.017-.075.027-.104.089-.12l.193-.045c.061-.015.104.016.136.091l.372.732c.3.553.508.926 1.301.926.522 0 1.18-.314 1.18-1.016 0-.672-.328-1.061-1.448-1.376-.881-.254-1.762-.717-1.762-1.896 0-1.032.971-1.824 2.089-1.824.718 0 1.107.18 1.376.313.223.105.254.179.268.27l.226 1.046c0 .059-.031.104-.105.135l-.179.06c-.06.015-.09 0-.134-.076l-.509-.686c-.179-.285-.463-.583-1.045-.583-.567 0-1.15.344-1.15.986 0 .866.702 1.031 1.434 1.241 1.09.312 1.778.761 1.793 1.913-.015 1.209-1 1.973-2.27 1.973-.736-.001-1.333-.302-1.514-.436m7.561-3.721c-.029.135-.044.375-.044.717 0 1.465.926 2.57 2.122 2.57.912 0 1.554-.522 1.811-1.016.03-.06.088-.089.133-.074l.194.104c.045.015.075.06 0 .225-.267.597-1.046 1.629-2.377 1.629-.85 0-1.792-.255-2.346-1.062-.522-.761-.657-1.314-.657-2.36 0-.583.149-1.583.942-2.376.642-.657 1.389-.792 2.137-.792 1.718 0 2.196 1.614 2.196 2.197 0 .209-.18.239-.418.239l-3.693-.001zm2.377-.447c.283 0 .404-.074.404-.209 0-.344-.179-1.33-1.151-1.33-.659 0-1.285.433-1.57 1.539h2.317zm5.11 3.571c-.687-.823-.822-1.375-.822-2.436 0-.762.403-1.718 1.286-2.406.774-.598 1.51-.718 2.003-.718.82 0 1.643.419 2.093.866.673.69 1.015 1.465 1.015 2.437 0 1.629-1.465 3.288-3.302 3.288-.718.001-1.646-.283-2.273-1.031m4.321-2.406c0-1.658-1.211-2.704-1.975-2.704-.402 0-.791.089-1.15.477-.582.598-.793 1.21-.793 2.347 0 .836.09 1.404.568 2.091.344.494.777.778 1.479.778 1.137 0 1.871-1.389 1.871-2.989m9.891 2.45c0 .24.134.314.325.314h.479c.137 0 .165.044.165.134v.239c0 .105-.03.166-.12.166-.105 0-.566-.045-1.421-.045-.765 0-1.239.045-1.346.045-.093 0-.118-.045-.118-.166v-.239c0-.104.045-.134.193-.134h.433c.165 0 .285-.075.302-.344.016-.388.027-.866.027-1.254v-1.973c0-.597 0-1.031-.434-1.345-.357-.269-.717-.269-1.09-.269-.238 0-.763.104-1.211.583-.299.328-.345.732-.345 1.016v3.094c0 .402.046.493.358.493h.378c.117 0 .146.044.146.15v.252c0 .09-.028.135-.103.135-.107 0-.51-.045-1.301-.045-.766 0-1.242.045-1.33.045-.076 0-.106-.045-.106-.135v-.27c0-.089.03-.134.151-.134h.433c.192 0 .297-.045.297-.299V16.15c0-.449-.237-.702-.612-.882l-.117-.06c-.104-.044-.118-.089-.118-.134v-.078c0-.075.058-.12.135-.149l1.284-.717c.119-.06.209-.105.271-.105.071 0 .104.06.115.181l.104.91h.031c.435-.537 1.301-1.091 2.047-1.091.447 0 .91.091 1.269.33.446.299.823 1.047.823 1.42v3.854h.006zm5.259-3.644c0 .777 0 3.032.016 3.496.016.254.072.463.387.463h.675c.135 0 .163.044.163.134v.254c0 .09-.028.15-.09.15-.104 0-.762-.045-1.688-.045-.955 0-1.556.045-1.688.045-.074 0-.104-.06-.104-.15v-.254c0-.104.029-.134.193-.134h.717c.165 0 .313-.104.33-.374.015-.462.015-3.033.015-3.9v-.942c0-1.06-.015-2.419-.044-2.808-.03-.508-.271-.748-.747-.897l-.301-.104c-.075-.03-.091-.044-.091-.074v-.118c0-.045.046-.075.136-.104.521-.24 1.197-.509 1.748-.869.137-.089.229-.119.314-.119.104 0 .134.075.119.269-.017.822-.06 3.93-.06 4.752v1.331-.002zm2.973 7.755c0-.313.328-.582.688-.582.282 0 .554.133.688.164.104.016.225 0 .313-.092.224-.269.985-1.976 1.194-2.555-.075-.374-1.656-5.052-1.776-5.365-.183-.373-.313-.628-.704-.628h-.388c-.105 0-.121-.045-.121-.135v-.297c0-.06.015-.106.121-.106.135 0 .491.045 1.372.045.765 0 1.227-.045 1.392-.045.12 0 .136.045.136.106v.313c0 .074-.016.12-.091.12H78.6c-.162 0-.225.104-.191.328.044.329 1.061 3.631 1.226 3.959h.058c.15-.239 1.449-3.347 1.539-3.72.09-.375-.028-.567-.254-.567h-.24c-.09 0-.104-.046-.104-.12v-.299c0-.075.018-.12.092-.12.193 0 .508.045 1.225.045.406 0 .748-.045.914-.045.086 0 .086.061.086.12v.285c0 .089 0 .135-.07.135h-.24a.68.68 0 0 0-.524.268c-.326.403-1.312 2.69-2.345 5.036-.73 1.659-1.312 3.05-1.584 3.54-.209.391-.477.973-1.269.973-.577 0-.862-.313-.862-.761m7.77-4.005c0-.254.179-.837.928-.837.435 0 .836.344.836.897 0 .491-.374.821-.836.821-.332.001-.928-.179-.928-.881m-40.493 9.376h.023l.461-1.262c.074-.199.029-.312-.086-.312h-.079c-.029 0-.035-.02-.035-.046v-.121c0-.024.017-.039.04-.039.035 0 .206.017.439.017.246 0 .347-.017.417-.017.029 0 .041.017.041.039v.121c0 .026-.012.046-.041.046h-.144a.245.245 0 0 0-.183.098c-.068.106-.792 1.928-.866 2.108-.022.062-.063.073-.109.073-.04 0-.08-.041-.103-.105l-.558-1.631h-.029l-.7 1.646c-.028.067-.074.092-.12.092-.045 0-.074-.045-.097-.114l-.746-2.015c-.04-.105-.103-.151-.239-.151h-.126c-.034 0-.04-.019-.04-.052v-.107c0-.027.006-.045.035-.045.079 0 .193.018.52.018.256 0 .393-.018.478-.018.036 0 .046.014.046.045v.113c0 .027-.005.046-.046.046h-.051c-.063 0-.103.051-.068.151l.45 1.52h.023l.582-1.396c-.012-.092-.016-.137-.051-.183-.028-.041-.074-.058-.153-.058h-.086c-.028 0-.039-.014-.039-.043v-.118c0-.032.016-.046.051-.046.045 0 .228.018.513.018.261 0 .387-.018.434-.018.039 0 .051.014.051.042v.12c0 .027-.013.045-.04.045h-.12c-.057 0-.103.062-.08.146l.431 1.393zm2.189-.895c-.012.05-.018.142-.018.272 0 .561.354.982.81.982a.769.769 0 0 0 .691-.391c.012-.021.034-.033.05-.025l.075.038c.016.007.029.024 0 .083-.104.229-.399.623-.907.623-.325 0-.684-.098-.895-.402-.199-.291-.251-.504-.251-.902 0-.223.057-.604.359-.905.245-.251.529-.303.815-.303.656 0 .838.616.838.838 0 .08-.067.092-.16.092h-1.407zm.907-.171c.107 0 .154-.029.154-.079 0-.132-.068-.508-.438-.508-.251 0-.491.166-.599.588l.883-.001zm3.278-1.786c0-.216-.041-.284-.358-.335-.035-.006-.04-.016-.04-.041v-.096c0-.023.011-.034.045-.04.222-.045.519-.099.627-.121.05-.006.091-.017.131-.017.029 0 .034.041.029.104-.018.283-.023 1.11-.023 1.835v1.261c0 .211.01.463.056.521.051.057.171.09.251.098.081.007.104.011.114.04l.012.047c.005.032-.006.049-.04.062l-.645.217c-.035.014-.063-.004-.075-.044l-.074-.253c-.183.186-.547.311-.838.311-.188 0-.405.012-.673-.264-.291-.284-.359-.544-.359-.924 0-.354.13-.701.399-.972.223-.236.53-.356.849-.356.235 0 .439.033.611.085l.001-1.118zm0 1.807c0-.078 0-.188-.051-.278-.08-.152-.262-.308-.599-.308a.697.697 0 0 0-.519.203c-.223.238-.263.541-.263.758 0 .644.445 1.113.775 1.113.319 0 .563-.164.622-.315a.509.509 0 0 0 .034-.192l.001-.981zm3.198-1.807c0-.216-.041-.284-.359-.335-.035-.006-.04-.016-.04-.041v-.096c0-.023.011-.034.045-.04.223-.045.52-.099.627-.121.052-.006.091-.017.13-.017.03 0 .035.041.03.104a47.68 47.68 0 0 0-.024 1.835v1.261c0 .211.011.463.057.521.052.057.171.09.252.098.08.007.102.011.113.04l.012.047c.005.032-.006.049-.04.062l-.645.217c-.034.014-.063-.004-.075-.044l-.073-.253c-.184.186-.547.311-.838.311-.188 0-.405.012-.673-.264-.292-.284-.359-.544-.359-.924 0-.354.13-.701.398-.972.223-.236.53-.356.85-.356.234 0 .438.033.611.085V26.26l.001-.001zm0 1.807c0-.078 0-.188-.052-.278-.079-.152-.262-.308-.598-.308a.697.697 0 0 0-.518.203c-.223.238-.263.541-.263.758 0 .644.445 1.113.775 1.113.319 0 .565-.164.622-.315a.533.533 0 0 0 .035-.192l-.001-.981zm2.051.007c0-.194-.033-.296-.316-.341-.043-.008-.052-.02-.052-.043v-.049c0-.018.013-.031.039-.043.185-.068.401-.16.618-.279a.249.249 0 0 1 .107-.033c.025 0 .031.027.025.068-.013.098-.013.457-.013.931v.62c0 .223 0 .429.005.492.014.104.027.146.094.146h.264c.043 0 .056.017.056.051v.099c0 .039-.013.057-.05.057-.045 0-.312-.018-.549-.018-.33 0-.555.018-.615.018-.03 0-.045-.012-.045-.044v-.115c0-.033.015-.046.058-.046h.28c.062 0 .082-.021.091-.112.006-.172.006-.349.006-.52v-.837h-.003v-.002zm-.268-1.75c0-.149.127-.319.357-.319.211 0 .311.17.311.301 0 .155-.104.34-.342.34-.13-.002-.326-.134-.326-.322m4.332 3.102c0 .093.053.118.125.118h.186c.05 0 .062.02.062.053v.092c0 .039-.014.062-.045.062-.039 0-.217-.018-.541-.018-.291 0-.474.018-.517.018-.033 0-.044-.018-.044-.062v-.092c0-.041.018-.053.074-.053h.166c.062 0 .107-.025.113-.131.006-.146.014-.331.014-.479v-.752c0-.229 0-.396-.166-.516-.141-.104-.273-.104-.417-.104a.676.676 0 0 0-.464.224.572.572 0 0 0-.133.388v1.182c0 .154.02.188.139.188h.144c.046 0 .06.02.06.061v.098c0 .033-.014.05-.041.05-.041 0-.193-.017-.497-.017-.288 0-.474.017-.507.017-.028 0-.039-.017-.039-.05v-.104c0-.035.011-.055.054-.055h.167c.074 0 .115-.016.115-.109V28.1c0-.174-.092-.271-.234-.34l-.048-.021c-.038-.014-.043-.033-.043-.051v-.028c0-.026.022-.045.05-.057l.491-.273c.047-.021.08-.04.104-.04.026 0 .039.021.043.067l.041.348h.014c.166-.204.494-.415.781-.415.17 0 .348.032.484.125.169.112.312.399.312.542v1.471l-.003-.003zm1.42 1.677c-.205-.125-.291-.271-.291-.461 0-.32.326-.564.6-.686v-.021c-.239-.051-.38-.228-.38-.397 0-.274.312-.47.513-.543v-.014c-.222-.098-.531-.358-.531-.865 0-.372.332-.828.979-.828.432 0 .662.263.72.329.152-.107.349-.222.534-.222.188 0 .281.127.27.24 0 .104-.092.208-.224.208a.278.278 0 0 1-.198-.085c-.031-.021-.074-.05-.119-.05-.039 0-.107 0-.185.033.044.112.087.237.087.434a.934.934 0 0 1-.21.615c-.149.166-.478.286-.663.286-.126 0-.208-.006-.291-.029-.111.044-.302.161-.302.319 0 .233.284.217.669.192.466-.021.752.027.979.205a.674.674 0 0 1 .277.547c0 .271-.097.492-.381.701-.148.108-.49.271-.975.271-.278.003-.603-.026-.878-.179m1.882-.588c0-.336-.257-.593-.826-.554l-.548.04c-.178.046-.457.24-.457.549 0 .143.107.312.224.395.188.134.394.16.798.16.213-.002.84-.151.809-.59m-.528-2.429c0-.252-.052-.399-.154-.513a.428.428 0 0 0-.272-.127.507.507 0 0 0-.404.16c-.187.192-.204.457-.204.672 0 .195.062.371.182.498a.462.462 0 0 0 .343.141c.382 0 .509-.473.509-.831" fill="#8E8E8E"/></svg>