<svg xmlns="http://www.w3.org/2000/svg" width="12" height="16"><path fill="#FFF" d="M5.659 2.252c-1.878 0-3.407 1.528-3.407 3.407s1.529 3.407 3.407 3.407c1.879 0 3.408-1.528 3.408-3.407S7.538 2.252 5.659 2.252zm0 6.004c-1.432 0-2.597-1.165-2.597-2.597s1.165-2.598 2.597-2.598c1.433 0 2.597 1.166 2.597 2.598S7.092 8.256 5.659 8.256z"/><path fill="#FFF" d="M5.763 15.818l.046-.021.009-.006c.008-.003.017-.011.025-.015l.028-.016c.018-.011.03-.021.043-.031l.041-.037a.39.39 0 0 0 .036-.044c3.008-4.226 4.373-6.798 4.519-7.078l.032-.062.006.003a5.67 5.67 0 0 0 .771-2.854c0-1.512-.588-2.933-1.657-4.001S7.171 0 5.659 0a5.618 5.618 0 0 0-4.001 1.658A5.62 5.62 0 0 0 0 5.659c0 1.006.267 1.993.773 2.857l.005-.003.03.062c.218.463 1.462 2.976 4.524 7.082.01.014.021.026.032.039l.005.004.01.012.026.021c.017.014.03.022.044.031.02.012.038.021.055.027l.005.003.033.011.015.004m.146-1.157l-.051.074-.053-.073c-2.923-3.994-4.064-6.436-4.075-6.46a.365.365 0 0 0-.045-.074l-.004-.008A4.842 4.842 0 0 1 .81 5.659c0-1.296.504-2.514 1.421-3.429A4.814 4.814 0 0 1 5.659.81c1.296 0 2.514.504 3.43 1.421a4.817 4.817 0 0 1 1.419 3.429 4.83 4.83 0 0 1-.666 2.453l-.003.006a.287.287 0 0 0-.036.057c-.013.024-1.266 2.443-4.1 6.476z"/></svg>