<?xml version="1.0" encoding="utf-8"?>
<!-- Generator: Adobe Illustrator 16.0.0, SVG Export Plug-In . SVG Version: 6.00 Build 0)  -->
<!DOCTYPE svg PUBLIC "-//W3C//DTD SVG 1.1//EN" "http://www.w3.org/Graphics/SVG/1.1/DTD/svg11.dtd">
<svg version="1.1" id="图层_1" xmlns="http://www.w3.org/2000/svg" xmlns:xlink="http://www.w3.org/1999/xlink" x="0px" y="0px"
	 width="595.28px" height="411.029px" viewBox="0 0 595.28 411.029" enable-background="new 0 0 595.28 411.029"
	 xml:space="preserve">
<path fill="#8D8D8D" d="M360.557,239.416c-0.356-2.296-2.981-7.499-9.278-15.228c-2.516-3.08-5.16-5.989-7.448-8.192
	c-2.284-2.199-4.093-3.617-5.375-4.216l-0.513-0.236l-1.634-0.104l-0.551,0.18c-0.86,0.282-1.766,0.873-2.765,1.806
	c-1.129,1.052-2.308,2.485-3.156,3.516l-0.109,0.133c-1.098,1.314-2.133,2.558-3.134,3.402c-0.945,0.801-1.775,1.167-2.467,1.091
	c-0.116-0.015-0.236-0.039-0.357-0.078c-2.586-0.814-6.676-5.428-8.883-8.105c-3.527-4.277-7.163-9.534-9.689-13.994
	c-0.829-1.557-1.391-2.508-1.802-3.202c-0.813-1.372-1.033-1.74-2.145-5.159c-1.073-3.297-2.766-9.223-2.093-11.776
	c0.114-0.387,0.379-1.291,2.426-1.922c1.255-0.389,2.923-0.601,4.534-0.806l0.093-0.012c1.531-0.19,3.268-0.407,4.72-0.787
	c1.554-0.398,3.542-1.269,4.179-3.133c0.748-2.152,0.445-3.344,0.027-4.993c-0.15-0.589-0.344-1.345-0.555-2.396
	c-0.633-3.12-1.671-6.916-2.925-10.686c-3.141-9.464-6.124-14.471-7.87-16l-0.42-0.367l-1.505-0.553l-0.561,0.011
	c-0.767,0.014-2.463,0.227-5.224,1.497c-2.441,1.123-5.211,2.831-7.801,4.81c-6.139,4.693-10.429,10.031-11.768,14.639
	c-1.458,4.981-0.713,13.342,2.099,23.544c2.773,10.062,4.618,13.797,9.945,23.806l1.991,3.638
	c5.793,10.231,12.797,20.082,19.725,27.738c7.087,7.838,13.743,12.954,18.738,14.409c0.815,0.237,1.713,0.412,2.667,0.519
	c4.414,0.494,10.1-0.428,16.007-2.599c3.091-1.136,6.02-2.561,8.239-4c2.609-1.678,3.687-3.006,4.098-3.648l0.287-0.451l0.337-1.539
	L360.557,239.416z"/>
</svg>
